<svg id="Layer_1" data-name="Layer 1" xmlns="http://www.w3.org/2000/svg" viewBox="0 0 176 336"><path d="M28.58,332.31a19.49,19.49,0,0,1-12.79-4.8L9,321.6a19.52,19.52,0,0,1-1.9-27.51L117.39,167.4,6.45,41.08A19.52,19.52,0,0,1,8.24,13.56L15,7.62A19.49,19.49,0,0,1,42.52,9.41l126,143.51a19.36,19.36,0,0,1,4.81,13.65,19.58,19.58,0,0,1-4.65,15L43.3,325.61a19.5,19.5,0,0,1-14.72,6.7Z"/><path d="M27.86,3.27A19,19,0,0,1,42.14,9.74l126,143.51a18.91,18.91,0,0,1,4.7,13.3v.15a18.76,18.76,0,0,1-4.54,14.52L42.92,325.28a19,19,0,0,1-26.8,1.86l-6.79-5.91a19,19,0,0,1-1.86-26.81l110-126.36.57-.66-.58-.65L6.83,40.75A19,19,0,0,1,8.56,13.94L15.33,8A19,19,0,0,1,27.86,3.27m0-1a19.91,19.91,0,0,0-13.19,5L7.91,13.18A20,20,0,0,0,6.07,41.41l110.65,126L6.72,293.76a20,20,0,0,0,2,28.22l6.79,5.91a20,20,0,0,0,28.22-1.95L169.09,181.88a19.92,19.92,0,0,0,4.77-15.29,20,20,0,0,0-4.93-14L42.89,9.08a19.92,19.92,0,0,0-15-6.81Z"/></svg>